<svg xmlns="http://www.w3.org/2000/svg" viewBox="0 0 179 203"><path fill="#0080d4" d="M10 9.5c0 1.1 21 52.1 23.2 56.4 1.9 3.7 3.5 5 9.8 8.2 14 7.2 21.8 7.2 37.8.1C96.9 67 99 66.5 115 66.5c12.6.1 15.2.4 19.9 2.3 3 1.2 5.6 2 5.7 1.9.2-.1 4.1-8.3 8.7-18.2s11-23.3 14.1-29.9c3.1-6.5 5.6-12.2 5.6-12.7S134.3 9 89.5 9C45.8 9 10 9.2 10 9.5"/><path fill="#aad4ff" d="M60.8 80.7c.7.3 1.6.2 1.9-.1.4-.3-.2-.6-1.3-.5-1.1 0-1.4.3-.6.6"/><path fill="#d4d4ff" d="M108.8 66.7c.6.2 1.8.2 2.5 0 .6-.3.1-.5-1.3-.5s-1.9.2-1.2.5m8.5 0c.9.2 2.3.2 3 0 .6-.3-.1-.5-1.8-.5-1.6 0-2.2.2-1.2.5"/><path fill="#d4ffff" d="M112.8 66.7c.6.2 1.8.2 2.5 0 .6-.3.1-.5-1.3-.5s-1.9.2-1.2.5"/><path fill="#fff" d="M98.1 68.5c-2.9.8-8.5 2.9-12.5 4.6-15.3 6.7-17 7.2-24.1 7.2-7.3.1-13.6-2-21.7-7-2.1-1.3-4-2.3-4.3-2.3-1.1 0 3.7 10.3 7 14.8C49 94.9 54.6 98.1 70 101.5c6.1 1.4 13.5 3.5 16.5 4.6 7.3 2.7 15.6 10.4 20.9 19.5l4.2 7.2 14.3-30.5c7.9-16.7 14.1-30.6 13.9-30.7-.1-.2-2.5-1.1-5.3-2.1-7-2.5-28.9-3.1-36.4-1"/><path fill="green" d="M47 93.5c1.3 1.4 2.6 2.5 2.8 2.5.3 0-.5-1.1-1.8-2.5S45.4 91 45.2 91c-.3 0 .5 1.1 1.8 2.5m7.4 4.9c1.1.9 2.4 1.6 3 1.6 1.2 0 .7-.5-2.4-1.9-2.4-1.1-2.4-1.1-.6.3m7.4 3.3c.7.3 1.6.2 1.9-.1.4-.3-.2-.6-1.3-.5-1.1 0-1.4.3-.6.6m4 1c.7.3 1.6.2 1.9-.1.4-.3-.2-.6-1.3-.5-1.1 0-1.4.3-.6.6m9 2c.6.2 1.8.2 2.5 0 .6-.3.1-.5-1.3-.5s-1.9.2-1.2.5M84 107c.8.5 2 1 2.5 1 .6 0 .3-.5-.5-1s-1.9-1-2.5-1c-.5 0-.3.5.5 1m8 3.7c1.3 1 4 3.1 6 4.8l3.5 2.9-2.7-3c-1.5-1.6-4.2-3.7-6-4.7-3.2-1.7-3.2-1.7-.8 0m9 8.7c0 .2.8 1 1.8 1.7 1.5 1.3 1.6 1.2.3-.4s-2.1-2.1-2.1-1.3m4 5.6c.6 1.1 1.3 2 1.6 2 .2 0 0-.9-.6-2s-1.3-2-1.6-2c-.2 0 0 .9.6 2m2.6 4.3c.3 1 .9 1.5 1.2 1.2s0-1.1-.7-1.8c-1-.9-1.1-.8-.5.6"/><path fill="#0a0" d="M43.2 91c2.2 6.4 40.5 99 40.9 99 .3 0 2.4-3.9 4.7-8.8 2.2-4.8 6.8-14.5 10.2-21.7 11.5-24.1 12.2-25.8 10.8-26.7-.7-.4-.8-.8-.3-.8.6 0 .5-.4-.2-.8-.6-.4-1.3-1.4-1.5-2.2s-.8-1.9-1.5-2.5c-.7-.5-1.3-1.7-1.5-2.5s-1.2-2.3-2.3-3.3-1.3-1.5-.5-1.1-.3-.9-2.5-2.9-4.4-3.6-4.8-3.7c-.5 0-.5-.5-.1-1.2s.3-.8-.4-.4c-.6.4-2-.2-3.1-1.3s-2.2-1.7-2.5-1.4c-.3.4-.6.1-.6-.6s-.4-.9-1-.6c-.5.3-2 0-3.2-.7-1.3-.7-2.9-1.1-3.5-1-.7.2-1.3-.1-1.3-.6s-1.1-.7-2.5-.4c-1.4.2-2.5 0-2.5-.7 0-.5-.6-.8-1.4-.5s-1.7.1-2.1-.5c-.3-.6-1.7-.8-3.1-.5-1.3.4-2.4.2-2.4-.4s-.9-.8-2-.5c-1.2.3-2 0-2-.6 0-.7-.4-1-.8-.7-1.1.7-9.2-3.3-9.2-4.6 0-.5-.4-.7-.9-.4-.5.4-2.1-.7-3.4-2.4-2.5-3-4.2-3.9-3.5-2"/><path fill="#80aa55" d="M98.5 115c1 1.1 2 2 2.3 2s-.3-.9-1.3-2-2-2-2.3-2 .3.9 1.3 2"/></svg>