<?xml version="1.0" encoding="UTF-8"?>
<!DOCTYPE svg PUBLIC "-//W3C//DTD SVG 1.1//EN" "http://www.w3.org/Graphics/SVG/1.1/DTD/svg11.dtd">
<svg xmlns="http://www.w3.org/2000/svg" version="1.1" width="179px" height="203px" style="shape-rendering:geometricPrecision; text-rendering:geometricPrecision; image-rendering:optimizeQuality; fill-rule:evenodd; clip-rule:evenodd" xmlns:xlink="http://www.w3.org/1999/xlink">
<g><path style="opacity:1" fill="#1596d3" d="M 140.5,70.5 C 125.215,64.8032 109.715,64.1365 94,68.5C 86.1101,71.5284 78.2767,74.695 70.5,78C 63.819,79.9509 57.1524,79.9509 50.5,78C 44.8113,75.1557 39.1447,72.3223 33.5,69.5C 25.1818,49.5258 16.8485,29.5258 8.5,9.5C 62.1667,8.16667 115.833,8.16667 169.5,9.5C 160.058,30.0456 150.392,50.3789 140.5,70.5 Z"/></g>
<g><path style="opacity:1" fill="#f8f9f9" d="M 140.5,70.5 C 131.019,91.6192 121.353,112.619 111.5,133.5C 107.568,124.163 101.568,116.33 93.5,110C 89.4554,107.427 85.1221,105.427 80.5,104C 67.4186,103.198 55.7519,98.8651 45.5,91C 43.2493,87.9332 40.916,85.0999 38.5,82.5C 37.0296,78.0883 35.3629,73.755 33.5,69.5C 39.1447,72.3223 44.8113,75.1557 50.5,78C 57.1524,79.9509 63.819,79.9509 70.5,78C 78.2767,74.695 86.1101,71.5284 94,68.5C 109.715,64.1365 125.215,64.8032 140.5,70.5 Z"/></g>
<g><path style="opacity:1" fill="#4ba22b" d="M 38.5,82.5 C 40.916,85.0999 43.2493,87.9332 45.5,91C 55.7519,98.8651 67.4186,103.198 80.5,104C 85.1221,105.427 89.4554,107.427 93.5,110C 101.568,116.33 107.568,124.163 111.5,133.5C 102.18,152.807 92.847,172.14 83.5,191.5C 68.2997,155.228 53.2997,118.895 38.5,82.5 Z"/></g>
</svg>
